<svg xmlns="http://www.w3.org/2000/svg" width="17" height="17" viewBox="0 0 17 17">
  <g id="noun_Gear_2434677" transform="translate(2.5 -101.958)">
    <path id="Path_104" data-name="Path 104" d="M19.142,9.648,17.818,9.5a1.379,1.379,0,0,1-1.109-.86V8.626a1.324,1.324,0,0,1,.179-1.379l.841-1.021a.391.391,0,0,0-.036-.537l-1.36-1.361a.409.409,0,0,0-.537-.036l-1.02.824a1.357,1.357,0,0,1-1.4.179h-.018A1.38,1.38,0,0,1,12.5,4.184L12.36,2.858a.4.4,0,0,0-.394-.358H10.034a.4.4,0,0,0-.394.358L9.5,4.184a1.38,1.38,0,0,1-.859,1.111H8.62a1.357,1.357,0,0,1-1.4-.179L6.2,4.291a.39.39,0,0,0-.537.036L4.307,5.689a.41.41,0,0,0-.036.537l.841,1.021a1.329,1.329,0,0,1,.179,1.379v.018a1.379,1.379,0,0,1-1.109.86l-1.324.143a.4.4,0,0,0-.358.394v1.935a.4.4,0,0,0,.358.394l1.324.143a1.379,1.379,0,0,1,1.109.86v.018a1.324,1.324,0,0,1-.179,1.379l-.841,1.021a.391.391,0,0,0,.036.537l1.36,1.361a.409.409,0,0,0,.537.036l1.02-.842A1.326,1.326,0,0,1,8.6,16.705H8.62a1.38,1.38,0,0,1,.859,1.111l.143,1.326a.4.4,0,0,0,.394.358h1.933a.4.4,0,0,0,.394-.358l.143-1.326a1.38,1.38,0,0,1,.859-1.111h.018a1.32,1.32,0,0,1,1.378.179l1.02.842a.39.39,0,0,0,.537-.036l1.36-1.361a.41.41,0,0,0,.036-.537l-.805-1.021a1.329,1.329,0,0,1-.179-1.379v-.018a1.379,1.379,0,0,1,1.109-.86l1.324-.143a.4.4,0,0,0,.358-.394V10.042A.4.4,0,0,0,19.142,9.648ZM11,13.965a2.956,2.956,0,1,1,2.953-2.956A2.957,2.957,0,0,1,11,13.965Z" transform="translate(-5 99.458)" fill="#fff"/>
  </g>
</svg>
