<svg xmlns="http://www.w3.org/2000/svg" width="30.007" height="30.007" viewBox="0 0 26.007 26.007">
  <g id="Group_11" data-name="Group 11" transform="translate(244.341 -711.282) rotate(90)">
    <path id="Path_22" data-name="Path 22" d="M711.3,227.893c-.006-.09-.012-.145-.012-.2,0-2.1-.008-4.2,0-6.3a2.96,2.96,0,0,1,2.416-3,3.7,3.7,0,0,1,.716-.061q9.887,0,19.774,0a2.969,2.969,0,0,1,3.032,2.409,3.6,3.6,0,0,1,.061.714q.006,5.206,0,10.412a.786.786,0,0,1-.148.449c-.323.417-.662.823-1.02,1.21a1.853,1.853,0,0,1-.527.365,1.277,1.277,0,0,1-1.566-.155,10.6,10.6,0,0,1-1.184-1.3,14.222,14.222,0,0,1-.99-1.569,10.982,10.982,0,0,0-2.268-2.986,3.025,3.025,0,0,0-1.522-.789,2.554,2.554,0,0,0-1.82.419,6.7,6.7,0,0,0-1.827,1.836c-.378.54-.724,1.106-1.051,1.678a11.557,11.557,0,0,1-1.555,2.2,4.781,4.781,0,0,1-.663.594,1.035,1.035,0,0,1-1.393-.01,6.214,6.214,0,0,1-1.044-1.051,17.672,17.672,0,0,1-1.208-1.841,12.225,12.225,0,0,0-2-2.759,5.5,5.5,0,0,0-.746-.613,2.5,2.5,0,0,0-2.993.005C711.61,227.659,711.469,227.768,711.3,227.893Z" transform="translate(0 0)" fill="#fff"/>
    <path id="Path_23" data-name="Path 23" d="M737.328,429.729v.174c0,2.256,0,4.511,0,6.767a2.955,2.955,0,0,1-2.2,2.946,3.571,3.571,0,0,1-.907.111q-9.9.009-19.8,0a2.977,2.977,0,0,1-3.1-3.095q0-5.577.006-11.155a.81.81,0,0,1,.156-.416,4.309,4.309,0,0,1,.419-.489,1.606,1.606,0,0,1,2.432-.072,12.491,12.491,0,0,1,1.906,2.584,20.456,20.456,0,0,0,1.53,2.277,5.977,5.977,0,0,0,1.357,1.218,2.384,2.384,0,0,0,2.715.014,5.662,5.662,0,0,0,1.674-1.6c.431-.6.831-1.233,1.2-1.875a11.913,11.913,0,0,1,1.554-2.2,5.356,5.356,0,0,1,.735-.663,1.014,1.014,0,0,1,1.407.015,4.676,4.676,0,0,1,.864.848,23.458,23.458,0,0,1,1.347,2.015,13.061,13.061,0,0,0,1.694,2.436,6.741,6.741,0,0,0,1.118.974,2.414,2.414,0,0,0,2.881-.01C736.666,430.3,736.975,430.014,737.328,429.729Z" transform="translate(-0.04 -195.393)" fill="#fff"/>
  </g>
</svg>
