<svg xmlns="http://www.w3.org/2000/svg" width="234" height="234" viewBox="0 0 234 234">
  <g id="Group_73" data-name="Group 73" transform="translate(-439 -1386)">
    <g id="Path_115" data-name="Path 115" transform="translate(439 1386)" fill="none">
      <path d="M117,0A117,117,0,1,1,0,117,117,117,0,0,1,117,0Z" stroke="none"/>
      <path d="M 117 4 C 109.3304672241211 4 101.6669616699219 4.772430419921875 94.22233581542969 6.29583740234375 C 86.96893310546875 7.780059814453125 79.83427429199219 9.994796752929688 73.01654052734375 12.87846374511719 C 66.32167053222656 15.71012878417969 59.86419677734375 19.21519470214844 53.82344055175781 23.2962646484375 C 47.83903503417969 27.3392333984375 42.21139526367188 31.98246765136719 37.09693908691406 37.09693908691406 C 31.98246765136719 42.21139526367188 27.3392333984375 47.83903503417969 23.2962646484375 53.82344055175781 C 19.21519470214844 59.86419677734375 15.71012878417969 66.32167053222656 12.87846374511719 73.01654052734375 C 9.994796752929688 79.83427429199219 7.780059814453125 86.96893310546875 6.29583740234375 94.22233581542969 C 4.772430419921875 101.6669616699219 4 109.3304672241211 4 117 C 4 124.6695327758789 4.772430419921875 132.3330383300781 6.29583740234375 139.7776641845703 C 7.780059814453125 147.0310668945313 9.994796752929688 154.1657409667969 12.87846374511719 160.9834594726563 C 15.71012878417969 167.6783447265625 19.21519470214844 174.1358032226563 23.2962646484375 180.1765747070313 C 27.3392333984375 186.1609649658203 31.98246765136719 191.7886047363281 37.09693908691406 196.903076171875 C 42.21139526367188 202.0175323486328 47.83903503417969 206.6607666015625 53.82344055175781 210.7037353515625 C 59.86419677734375 214.7848052978516 66.32167053222656 218.2898712158203 73.01654052734375 221.1215362548828 C 79.83427429199219 224.0052032470703 86.96893310546875 226.2199401855469 94.22233581542969 227.7041625976563 C 101.6669616699219 229.2275695800781 109.3304672241211 230 117 230 C 124.6695327758789 230 132.3330383300781 229.2275695800781 139.7776641845703 227.7041625976563 C 147.0310668945313 226.2199401855469 154.1657409667969 224.0052032470703 160.9834594726563 221.1215362548828 C 167.6783447265625 218.2898712158203 174.1358032226563 214.7848052978516 180.1765747070313 210.7037353515625 C 186.1609649658203 206.6607666015625 191.7886047363281 202.0175323486328 196.903076171875 196.903076171875 C 202.0175323486328 191.7886047363281 206.6607666015625 186.1609649658203 210.7037353515625 180.1765747070313 C 214.7848052978516 174.1358032226563 218.2898712158203 167.6783447265625 221.1215362548828 160.9834594726563 C 224.0052032470703 154.1657409667969 226.2199401855469 147.0310668945313 227.7041625976563 139.7776641845703 C 229.2275695800781 132.3330383300781 230 124.6695327758789 230 117 C 230 109.3304672241211 229.2275695800781 101.6669616699219 227.7041625976563 94.22233581542969 C 226.2199401855469 86.96893310546875 224.0052032470703 79.83427429199219 221.1215362548828 73.01654052734375 C 218.2898712158203 66.32167053222656 214.7848052978516 59.86419677734375 210.7037353515625 53.82344055175781 C 206.6607666015625 47.83903503417969 202.0175323486328 42.21139526367188 196.903076171875 37.09693908691406 C 191.7886047363281 31.98246765136719 186.1609649658203 27.3392333984375 180.1765747070313 23.2962646484375 C 174.1358032226563 19.21519470214844 167.6783447265625 15.71012878417969 160.9834594726563 12.87846374511719 C 154.1657409667969 9.994796752929688 147.0310668945313 7.780059814453125 139.7776641845703 6.29583740234375 C 132.3330383300781 4.772430419921875 124.6695327758789 4 117 4 M 117 0 C 181.6172943115234 0 234 52.38270568847656 234 117 C 234 181.6172943115234 181.6172943115234 234 117 234 C 52.38270568847656 234 0 181.6172943115234 0 117 C 0 52.38270568847656 52.38270568847656 0 117 0 Z" stroke="none" fill="#fff"/>
    </g>
    <text id="OSC_2" data-name="OSC 2" transform="translate(556 1442)" fill="#fff" font-size="22" font-family="FuturaPT-Demi, Futura PT" font-weight="300"><tspan x="-30.129" y="0">OSC 2</tspan></text>
    <g id="switch_off_dark" transform="translate(-240 1358)">
      <path id="switch_off_path" d="M37,10a6.957,6.957,0,0,1-7,7H10a6.957,6.957,0,0,1-7-7H3a6.957,6.957,0,0,1,7-7H30a6.957,6.957,0,0,1,7,7Z" transform="translate(778 106)" fill="rgba(255,255,255,0.8)" fill-rule="evenodd"/>
      <path id="switch_off_button" d="M10,0A10,10,0,1,1,0,10,10,10,0,0,1,10,0Z" transform="translate(778 106)" fill="#fff"/>
    </g>
  </g>
</svg>
