<svg xmlns="http://www.w3.org/2000/svg" width="28" height="28" viewBox="0 0 28 28">
  <g id="noun_Sawtooth_Wave_1996693" data-name="noun_Sawtooth Wave_1996693" transform="translate(-4.402 -30.402)">
    <path id="Path_106" data-name="Path 106" d="M26.228,26.927a.963.963,0,0,1-.533-.862v-7.36l-10.81,8.13a.963.963,0,0,1-1.543-.77V18.694L6.4,23.863v7.328A3.211,3.211,0,0,0,9.613,34.4H31.191A3.211,3.211,0,0,0,34.4,31.191V21.446l-7.165,5.389A.964.964,0,0,1,26.228,26.927ZM31.191,6.4H9.613A3.211,3.211,0,0,0,6.4,9.613V21.461L13.73,16a.963.963,0,0,1,1.539.773v7.36l10.809-8.13a.963.963,0,0,1,1.543.77v7.36l6.781-5.1V9.613A3.211,3.211,0,0,0,31.191,6.4Z" transform="translate(-2 24)" fill="#240046"/>
  </g>
</svg>
