<svg xmlns="http://www.w3.org/2000/svg" width="32" height="32" viewBox="0 0 32 32">
  <g id="noun_Sine_Wave_1996691" data-name="noun_Sine Wave_1996691" transform="translate(-6.402 -6.402)">
    <path id="Path_117" data-name="Path 117" d="M8.7,18.995c-.209,0-.939-.1-1.839.993l-.461.547v14.2a3.67,3.67,0,0,0,3.67,3.67h24.66a3.67,3.67,0,0,0,3.67-3.67V26a4.205,4.205,0,0,1-2.894,1.632l-.126,0-.123,0c-2.476,0-4.689-4-5.11-4.807-.836-1.6-2.513-3.829-3.489-3.829l-.048,0-.094,0h-.038c-1.007,0-2.723,2.223-3.57,3.827-.423.813-2.7,4.928-5.23,4.8l-.123,0c-2.487,0-4.692-4-5.11-4.808-.836-1.6-2.516-3.828-3.489-3.828H8.7ZM34.732,6.4H10.072a3.67,3.67,0,0,0-3.67,3.67v8.152a3.5,3.5,0,0,1,2.425-1.047c2.527-.135,4.81,3.988,5.236,4.8.836,1.6,2.514,3.828,3.486,3.828l.048,0,.083-.007.078.006.048,0c.978,0,2.655-2.224,3.492-3.828.426-.8,2.664-4.8,5.182-4.8H26.5c2.54-.171,4.837,3.984,5.263,4.8.839,1.6,2.513,3.828,3.489,3.828h.257c.448,0,1.332-.208,2.479-1.824L38.4,23.4V10.072A3.671,3.671,0,0,0,34.732,6.4Z" transform="translate(0 0)" fill="#240046"/>
  </g>
</svg>
