<svg xmlns="http://www.w3.org/2000/svg" width="28" height="28" viewBox="0 0 28 28">
  <g id="noun_Sine_Wave_1996691" data-name="noun_Sine Wave_1996691" transform="translate(-6.402 -6.402)">
    <path id="Path_117" data-name="Path 117" d="M8.414,17.421c-.183,0-.822-.089-1.609.869l-.4.478V31.191A3.211,3.211,0,0,0,9.613,34.4H31.19A3.211,3.211,0,0,0,34.4,31.191V23.549a3.679,3.679,0,0,1-2.532,1.428l-.11,0-.108,0c-2.167,0-4.1-3.5-4.471-4.206-.731-1.4-2.2-3.35-3.052-3.35l-.042,0-.082,0H23.97c-.881,0-2.382,1.945-3.123,3.349-.37.711-2.361,4.312-4.576,4.2l-.108,0c-2.176,0-4.105-3.5-4.471-4.207-.731-1.4-2.2-3.35-3.053-3.35H8.414ZM31.191,6.4H9.613A3.211,3.211,0,0,0,6.4,9.613v7.133a3.062,3.062,0,0,1,2.122-.916c2.211-.118,4.208,3.49,4.581,4.2.731,1.4,2.2,3.349,3.051,3.349l.042,0,.073-.006.068.005.042,0c.856,0,2.323-1.946,3.055-3.35.372-.7,2.331-4.2,4.534-4.2h.019c2.223-.15,4.232,3.486,4.6,4.2.734,1.4,2.2,3.35,3.053,3.35h.225c.392,0,1.166-.182,2.169-1.6l.361-.511V9.613A3.212,3.212,0,0,0,31.191,6.4Z" fill="#240046"/>
  </g>
</svg>
