<svg xmlns="http://www.w3.org/2000/svg" width="28" height="28" viewBox="0 0 28 28">
  <g id="noun_square_wave_1996692" data-name="noun_square wave_1996692" transform="translate(-6.402 -6.402)">
    <path id="Path_118" data-name="Path 118" d="M31.191,6.4H9.613A3.211,3.211,0,0,0,6.4,9.613v7.631H9.454v6.636h3.011V17.244h4.787v6.636h3.011V17.244h4.787v6.636h3.011V17.244h4.787v6.636H34.4V9.613A3.211,3.211,0,0,0,31.191,6.4Zm.053,12.448H29.668v6.636H23.446V18.85H21.87v6.636H15.647V18.85H14.071v6.636H7.849V18.85H6.4V31.191A3.211,3.211,0,0,0,9.613,34.4H31.191A3.211,3.211,0,0,0,34.4,31.191v-5.7H31.244V18.85Z" transform="translate(0)" fill="#240046"/>
  </g>
</svg>
