<svg xmlns="http://www.w3.org/2000/svg" width="100%" height="100%" viewBox="0 0 287.536 275.295">
  <g id="Group_70" data-name="Group 70" transform="translate(-1222.474 -291.474)">
    <g id="noun_launchpad_1731196" transform="translate(1222.474 291.474)">
      <g id="Group_14" data-name="Group 14" transform="translate(0)">
        <path id="Path_65" data-name="Path 65" d="M143.322,11H20.2A9.211,9.211,0,0,0,11,20.2V143.322a9.211,9.211,0,0,0,9.2,9.2H143.322a9.211,9.211,0,0,0,9.2-9.2V20.2A9.211,9.211,0,0,0,143.322,11Zm5.572,132.325a5.579,5.579,0,0,1-5.572,5.572H20.2a5.579,5.579,0,0,1-5.572-5.572V20.2A5.579,5.579,0,0,1,20.2,14.626H143.322a5.579,5.579,0,0,1,5.572,5.572V143.322Z" transform="translate(-10.998 -10.998)" fill="#fff"/>
        <path id="Path_66" data-name="Path 66" d="M35.7,72.561H16.741a2.475,2.475,0,0,0-2.472,2.472V91.371a5.1,5.1,0,0,0,5.1,5.1H35.7a2.475,2.475,0,0,0,2.472-2.472V75.033A2.475,2.475,0,0,0,35.7,72.561Z" transform="translate(-8.33 39.12)" fill="#fff"/>
        <path id="Path_67" data-name="Path 67" d="M35.7,26.788H19.365a5.1,5.1,0,0,0-5.1,5.1V48.22a2.475,2.475,0,0,0,2.472,2.472H35.7a2.475,2.475,0,0,0,2.472-2.472V29.26A2.475,2.475,0,0,0,35.7,26.788Z" transform="translate(-8.33 1.858)" fill="#fff"/>
        <path id="Path_68" data-name="Path 68" d="M78.853,26.788H62.515a2.475,2.475,0,0,0-2.472,2.472V48.22a2.475,2.475,0,0,0,2.472,2.472H81.476a2.475,2.475,0,0,0,2.472-2.472V31.883A5.1,5.1,0,0,0,78.853,26.788Z" transform="translate(28.932 1.858)" fill="#fff"/>
        <path id="Path_69" data-name="Path 69" d="M81.476,72.561H62.515a2.475,2.475,0,0,0-2.472,2.472V93.994a2.475,2.475,0,0,0,2.472,2.472H78.853a5.1,5.1,0,0,0,5.1-5.1V75.033A2.475,2.475,0,0,0,81.476,72.561Z" transform="translate(28.932 39.12)" fill="#fff"/>
        <path id="Path_70" data-name="Path 70" d="M35.7,57.3H16.741a2.474,2.474,0,0,0-2.472,2.471V78.735a2.475,2.475,0,0,0,2.472,2.472H35.7a2.475,2.475,0,0,0,2.472-2.472V59.775A2.474,2.474,0,0,0,35.7,57.3ZM34.544,77.577H17.9V60.934H34.544Z" transform="translate(-8.33 26.702)" fill="#fff"/>
        <path id="Path_71" data-name="Path 71" d="M35.7,42.045H16.741a2.475,2.475,0,0,0-2.472,2.472V63.478a2.475,2.475,0,0,0,2.472,2.472H35.7a2.475,2.475,0,0,0,2.472-2.472V44.517A2.475,2.475,0,0,0,35.7,42.045ZM34.544,62.32H17.9V45.676H34.544Z" transform="translate(-8.33 14.279)" fill="#fff"/>
        <path id="Path_72" data-name="Path 72" d="M50.961,72.561H32a2.475,2.475,0,0,0-2.472,2.472V93.994A2.475,2.475,0,0,0,32,96.466H50.96a2.474,2.474,0,0,0,2.471-2.472V75.033A2.474,2.474,0,0,0,50.961,72.561ZM49.8,92.836H33.158V76.192H49.8Z" transform="translate(4.089 39.12)" fill="#fff"/>
        <path id="Path_73" data-name="Path 73" d="M50.961,26.788H32a2.475,2.475,0,0,0-2.472,2.472V48.22A2.475,2.475,0,0,0,32,50.692H50.96a2.474,2.474,0,0,0,2.471-2.472V29.26A2.474,2.474,0,0,0,50.961,26.788ZM49.8,47.062H33.158V30.418H49.8Z" transform="translate(4.089 1.858)" fill="#fff"/>
        <path id="Path_74" data-name="Path 74" d="M50.961,57.3H32a2.474,2.474,0,0,0-2.472,2.471V78.735A2.475,2.475,0,0,0,32,81.207H50.96a2.474,2.474,0,0,0,2.471-2.472V59.775A2.474,2.474,0,0,0,50.961,57.3Z" transform="translate(4.089 26.702)" fill="#fff"/>
        <path id="Path_75" data-name="Path 75" d="M50.961,42.045H32a2.475,2.475,0,0,0-2.472,2.472V63.478A2.475,2.475,0,0,0,32,65.95H50.96a2.474,2.474,0,0,0,2.471-2.472V44.517A2.474,2.474,0,0,0,50.961,42.045Z" transform="translate(4.089 14.279)" fill="#fff"/>
        <path id="Path_76" data-name="Path 76" d="M66.218,72.561H47.258a2.475,2.475,0,0,0-2.472,2.472V93.994a2.475,2.475,0,0,0,2.472,2.472H66.218a2.475,2.475,0,0,0,2.472-2.472V75.033A2.475,2.475,0,0,0,66.218,72.561ZM65.06,92.836H48.416V76.192H65.06Z" transform="translate(16.51 39.12)" fill="#fff"/>
        <path id="Path_77" data-name="Path 77" d="M66.218,26.788H47.258a2.475,2.475,0,0,0-2.472,2.472V48.22a2.475,2.475,0,0,0,2.472,2.472H66.218A2.475,2.475,0,0,0,68.69,48.22V29.26A2.475,2.475,0,0,0,66.218,26.788ZM65.06,47.062H48.416V30.418H65.06Z" transform="translate(16.51 1.858)" fill="#fff"/>
        <path id="Path_78" data-name="Path 78" d="M66.218,57.3H47.258a2.474,2.474,0,0,0-2.472,2.471V78.735a2.475,2.475,0,0,0,2.472,2.472H66.218a2.475,2.475,0,0,0,2.472-2.472V59.775A2.475,2.475,0,0,0,66.218,57.3Z" transform="translate(16.51 26.702)" fill="#fff"/>
        <path id="Path_79" data-name="Path 79" d="M66.218,42.045H47.258a2.475,2.475,0,0,0-2.472,2.472V63.478a2.475,2.475,0,0,0,2.472,2.472H66.218a2.475,2.475,0,0,0,2.472-2.472V44.517A2.475,2.475,0,0,0,66.218,42.045Z" transform="translate(16.51 14.279)" fill="#fff"/>
        <path id="Path_80" data-name="Path 80" d="M81.476,57.3H62.515a2.474,2.474,0,0,0-2.472,2.471V78.735a2.475,2.475,0,0,0,2.472,2.472H81.476a2.475,2.475,0,0,0,2.472-2.472V59.775A2.475,2.475,0,0,0,81.476,57.3ZM80.318,77.577H63.674V60.934H80.318V77.577Z" transform="translate(28.932 26.702)" fill="#fff"/>
        <path id="Path_81" data-name="Path 81" d="M81.476,42.045H62.515a2.475,2.475,0,0,0-2.472,2.472V63.478a2.475,2.475,0,0,0,2.472,2.472H81.476a2.475,2.475,0,0,0,2.472-2.472V44.517A2.475,2.475,0,0,0,81.476,42.045ZM80.318,62.32H63.674V45.676H80.318V62.32Z" transform="translate(28.932 14.279)" fill="#fff"/>
        <path id="Path_82" data-name="Path 82" d="M88.825,39.04H85.043V28.6a1.815,1.815,0,1,0-3.63,0V39.04H77.632a1.815,1.815,0,1,0,0,3.63h3.781v33.9a1.815,1.815,0,0,0,3.63,0v-33.9h3.782a1.815,1.815,0,0,0,0-3.63Z" transform="translate(41.774 1.852)" fill="#fff"/>
        <path id="Path_83" data-name="Path 83" d="M88.825,89.8H85.043V59.119a1.815,1.815,0,1,0-3.63,0V89.8H77.632a1.815,1.815,0,0,0,0,3.63h3.781V107.09a1.815,1.815,0,1,0,3.63,0V93.427h3.782a1.815,1.815,0,0,0,0-3.63Z" transform="translate(41.774 26.681)" fill="#fff"/>
        <path id="Path_84" data-name="Path 84" d="M18.539,21.473h9.527a2.723,2.723,0,0,0,0-5.446H18.539a2.723,2.723,0,0,0,0,5.446Z" transform="translate(-7.069 -6.898)" fill="#fff"/>
        <path id="Path_85" data-name="Path 85" d="M27.77,21.473H37.3a2.723,2.723,0,1,0,0-5.446H27.77a2.723,2.723,0,1,0,0,5.446Z" transform="translate(0.442 -6.898)" fill="#fff"/>
        <path id="Path_86" data-name="Path 86" d="M18.539,27.108h9.527a2.723,2.723,0,1,0,0-5.446H18.539a2.723,2.723,0,1,0,0,5.446Z" transform="translate(-7.069 -2.303)" fill="#fff"/>
        <path id="Path_87" data-name="Path 87" d="M27.77,27.108H37.3a2.723,2.723,0,1,0,0-5.446H27.77a2.723,2.723,0,1,0,0,5.446Z" transform="translate(0.442 -2.303)" fill="#fff"/>
        <path id="Path_88" data-name="Path 88" d="M36.743,21.473h9.527a2.723,2.723,0,1,0,0-5.446H36.743a2.723,2.723,0,1,0,0,5.446Z" transform="translate(7.748 -6.898)" fill="#fff"/>
        <path id="Path_89" data-name="Path 89" d="M45.974,21.473H55.5a2.723,2.723,0,1,0,0-5.446H45.974a2.723,2.723,0,1,0,0,5.446Z" transform="translate(15.264 -6.898)" fill="#fff"/>
        <path id="Path_90" data-name="Path 90" d="M36.743,27.108h9.527a2.723,2.723,0,1,0,0-5.446H36.743a2.723,2.723,0,1,0,0,5.446Z" transform="translate(7.748 -2.303)" fill="#fff"/>
        <path id="Path_91" data-name="Path 91" d="M58.224,24.385A2.722,2.722,0,0,0,55.5,21.663H45.974a2.723,2.723,0,0,0,0,5.446H55.5A2.722,2.722,0,0,0,58.224,24.385Z" transform="translate(15.264 -2.303)" fill="#fff"/>
        <path id="Path_92" data-name="Path 92" d="M88.316,20.756h-7.6a1.815,1.815,0,1,0,0,3.63h7.6a1.815,1.815,0,0,0,0-3.63Z" transform="translate(44.287 -3.042)" fill="#fff"/>
        <path id="Path_93" data-name="Path 93" d="M88.316,23.569h-7.6a1.815,1.815,0,1,0,0,3.63h7.6a1.815,1.815,0,0,0,0-3.63Z" transform="translate(44.287 -0.749)" fill="#fff"/>
      </g>
    </g>
    <g id="noun_Synthesizer_1746333" transform="translate(1260.231 463)">
      <g id="Group_9" data-name="Group 9" transform="translate(0)">
        <path id="Path_1" data-name="Path 1" d="M103.769,0H0V22.7H37.292v3.243h3.243V22.7H56.749v4.864a1.532,1.532,0,0,1-1.621,1.621H17.835a4.777,4.777,0,0,0-4.864,4.864v1.621h3.243V34.049a1.532,1.532,0,0,1,1.621-1.621H37.292v1.621a4.777,4.777,0,0,0,4.864,4.864H66.477v1.621a1.532,1.532,0,0,1-1.621,1.621H55.127a4.777,4.777,0,0,0-4.864,4.864v1.621H34.049V43.778a4.777,4.777,0,0,0-4.864-4.864H0v3.243H12.971v6.486H0v55.127H103.769V48.642H81.07V40.535a4.777,4.777,0,0,0-4.864-4.864H42.156a1.532,1.532,0,0,1-1.621-1.621V32.428H55.127a4.777,4.777,0,0,0,4.864-4.864V22.7h6.486v9.728H69.72V22.7h34.049ZM16.214,42.156H29.185a1.532,1.532,0,0,1,1.621,1.621v4.864H16.214Zm84.313,9.728v48.642H3.243V51.885h9.728V77.827a4.777,4.777,0,0,0,4.864,4.864H29.672a3.138,3.138,0,0,0,2.756,1.621,3.243,3.243,0,0,0,0-6.486,3.138,3.138,0,0,0-2.756,1.621H17.835a1.532,1.532,0,0,1-1.621-1.621V51.885H30.807v6.972a3.138,3.138,0,0,0-1.621,2.756,3.243,3.243,0,1,0,6.486,0,3.138,3.138,0,0,0-1.621-2.756V51.885H50.263v6.972a3.138,3.138,0,0,0-1.621,2.756,3.243,3.243,0,0,0,6.486,0,3.138,3.138,0,0,0-1.621-2.756V51.885H77.827V87.555a1.532,1.532,0,0,1-1.621,1.621H64.369a3.138,3.138,0,0,0-2.756-1.621,3.243,3.243,0,0,0,0,6.486,3.138,3.138,0,0,0,2.756-1.621H76.206a4.777,4.777,0,0,0,4.864-4.864V51.885Zm-22.7-11.35v8.107H53.506V47.02A1.532,1.532,0,0,1,55.127,45.4h9.728a4.777,4.777,0,0,0,4.864-4.864V38.913h6.486A1.532,1.532,0,0,1,77.827,40.535ZM3.243,3.243h22.7V19.457H3.243Zm97.284,16.214H69.72V15.728a3.138,3.138,0,0,0,1.621-2.756,3.243,3.243,0,1,0-6.486,0,3.138,3.138,0,0,0,1.621,2.756v3.729H59.992V15.728a3.138,3.138,0,0,0,1.621-2.756,3.243,3.243,0,1,0-6.486,0,3.138,3.138,0,0,0,1.621,2.756v3.729H40.535V15.728a3.138,3.138,0,0,0,1.621-2.756,3.243,3.243,0,0,0-6.486,0,3.138,3.138,0,0,0,1.621,2.756v3.729H29.185V3.243h71.341Z" fill="#fff"/>
        <circle id="Ellipse_1" data-name="Ellipse 1" cx="3.135" cy="3.135" r="3.135" transform="translate(45.001 10.043)" fill="#fff"/>
        <circle id="Ellipse_2" data-name="Ellipse 2" cx="3.135" cy="3.135" r="3.135" transform="translate(38.753 58.748)" fill="#fff"/>
        <circle id="Ellipse_3" data-name="Ellipse 3" cx="3.135" cy="3.135" r="3.135" transform="translate(58.748 58.748)" fill="#fff"/>
        <ellipse id="Ellipse_4" data-name="Ellipse 4" cx="3.761" cy="3.135" rx="3.761" ry="3.135" transform="translate(28.754 67.495)" fill="#fff"/>
        <circle id="Ellipse_5" data-name="Ellipse 5" cx="3.135" cy="3.135" r="3.135" transform="translate(20.007 58.748)" fill="#fff"/>
        <circle id="Ellipse_6" data-name="Ellipse 6" cx="3.135" cy="3.135" r="3.135" transform="translate(20.007 67.495)" fill="#fff"/>
        <circle id="Ellipse_7" data-name="Ellipse 7" cx="3.135" cy="3.135" r="3.135" transform="translate(38.753 67.495)" fill="#fff"/>
        <circle id="Ellipse_8" data-name="Ellipse 8" cx="3.135" cy="3.135" r="3.135" transform="translate(48.75 67.495)" fill="#fff"/>
        <circle id="Ellipse_9" data-name="Ellipse 9" cx="3.135" cy="3.135" r="3.135" transform="translate(58.748 67.495)" fill="#fff"/>
        <circle id="Ellipse_10" data-name="Ellipse 10" cx="3.135" cy="3.135" r="3.135" transform="translate(38.753 77.493)" fill="#fff"/>
        <circle id="Ellipse_11" data-name="Ellipse 11" cx="3.135" cy="3.135" r="3.135" transform="translate(48.75 77.493)" fill="#fff"/>
        <circle id="Ellipse_12" data-name="Ellipse 12" cx="3.135" cy="3.135" r="3.135" transform="translate(58.748 77.493)" fill="#fff"/>
        <circle id="Ellipse_13" data-name="Ellipse 13" cx="3.135" cy="3.135" r="3.135" transform="translate(67.495 58.748)" fill="#fff"/>
        <circle id="Ellipse_14" data-name="Ellipse 14" cx="3.135" cy="3.135" r="3.135" transform="translate(67.495 67.495)" fill="#fff"/>
        <circle id="Ellipse_15" data-name="Ellipse 15" cx="3.135" cy="3.135" r="3.135" transform="translate(67.495 77.493)" fill="#fff"/>
        <ellipse id="Ellipse_16" data-name="Ellipse 16" cx="3.761" cy="3.135" rx="3.761" ry="3.135" transform="translate(28.754 87.457)" fill="#fff"/>
        <circle id="Ellipse_17" data-name="Ellipse 17" cx="3.135" cy="3.135" r="3.135" transform="translate(20.007 87.457)" fill="#fff"/>
        <circle id="Ellipse_18" data-name="Ellipse 18" cx="3.135" cy="3.135" r="3.135" transform="translate(38.753 87.457)" fill="#fff"/>
        <circle id="Ellipse_19" data-name="Ellipse 19" cx="3.135" cy="3.135" r="3.135" transform="translate(48.75 87.457)" fill="#fff"/>
        <rect id="Rectangle_203" data-name="Rectangle 203" width="3.761" height="10.03" transform="translate(83.696 6.282)" fill="#fff"/>
        <rect id="Rectangle_204" data-name="Rectangle 204" width="3.761" height="10.03" transform="translate(77.499 6.282)" fill="#fff"/>
        <rect id="Rectangle_205" data-name="Rectangle 205" width="7.501" height="7.501" transform="translate(6.254 6.561)" fill="#fff"/>
        <rect id="Rectangle_206" data-name="Rectangle 206" width="2.508" height="3.761" transform="translate(93.726 6.282)" fill="#fff"/>
        <rect id="Rectangle_207" data-name="Rectangle 207" width="2.508" height="2.508" transform="translate(93.726 13.804)" fill="#fff"/>
        <rect id="Rectangle_208" data-name="Rectangle 208" width="2.508" height="3.761" transform="translate(20.01 6.282)" fill="#fff"/>
        <rect id="Rectangle_209" data-name="Rectangle 209" width="3.751" height="3.751" transform="translate(0.003 28.971)" fill="#fff"/>
        <rect id="Rectangle_210" data-name="Rectangle 210" width="2.508" height="2.508" transform="translate(87.457 36.258)" fill="#fff"/>
        <rect id="Rectangle_211" data-name="Rectangle 211" width="2.508" height="2.508" transform="translate(93.726 36.258)" fill="#fff"/>
        <rect id="Rectangle_212" data-name="Rectangle 212" width="3.751" height="2.5" transform="translate(6.254 93.755)" fill="#fff"/>
        <rect id="Rectangle_213" data-name="Rectangle 213" width="3.751" height="2.5" transform="translate(6.254 87.504)" fill="#fff"/>
        <rect id="Rectangle_214" data-name="Rectangle 214" width="3.751" height="3.751" transform="translate(6.254 55.142)" fill="#fff"/>
        <rect id="Rectangle_215" data-name="Rectangle 215" width="2.508" height="2.508" transform="translate(93.726 93.726)" fill="#fff"/>
        <rect id="Rectangle_216" data-name="Rectangle 216" width="12.538" height="6.269" transform="translate(83.696 58.748)" fill="#fff"/>
        <rect id="Rectangle_217" data-name="Rectangle 217" width="2.508" height="3.761" transform="translate(93.726 67.501)" fill="#fff"/>
        <rect id="Rectangle_218" data-name="Rectangle 218" width="2.508" height="3.761" transform="translate(93.726 73.75)" fill="#fff"/>
        <rect id="Rectangle_219" data-name="Rectangle 219" width="2.508" height="2.508" transform="translate(93.726 81.252)" fill="#fff"/>
        <rect id="Rectangle_220" data-name="Rectangle 220" width="2.508" height="2.508" transform="translate(87.457 87.457)" fill="#fff"/>
        <rect id="Rectangle_221" data-name="Rectangle 221" width="2.508" height="3.761" transform="translate(87.457 73.75)" fill="#fff"/>
        <rect id="Rectangle_222" data-name="Rectangle 222" width="2.508" height="2.508" transform="translate(87.457 81.252)" fill="#fff"/>
      </g>
    </g>
    <g id="noun_woofer_1731191" transform="translate(1394 316.99)">
      <g id="Group_15" data-name="Group 15" transform="translate(0)">
        <path id="Path_94" data-name="Path 94" d="M119.464,127.007H18.541A7.551,7.551,0,0,1,11,119.464V18.54A7.551,7.551,0,0,1,18.541,11H119.464a7.551,7.551,0,0,1,7.543,7.542V119.464A7.551,7.551,0,0,1,119.464,127.007ZM18.541,13.972a4.573,4.573,0,0,0-4.569,4.568V119.465a4.573,4.573,0,0,0,4.569,4.568H119.464a4.573,4.573,0,0,0,4.569-4.568V18.54a4.573,4.573,0,0,0-4.569-4.568H18.541Z" transform="translate(-10.997 -10.998)" fill="#fff"/>
        <path id="Path_95" data-name="Path 95" d="M64.1,103.5a42.964,42.964,0,1,1,43.024-42.965A43.043,43.043,0,0,1,64.1,103.5Zm0-84.443a41.479,41.479,0,1,0,41.536,41.479A41.554,41.554,0,0,0,64.1,19.054Z" transform="translate(-6.099 -7.806)" fill="#fff"/>
        <path id="Path_96" data-name="Path 96" d="M63.133,99.554a39.993,39.993,0,1,1,40.052-39.993A40.068,40.068,0,0,1,63.133,99.554Zm0-75.529A35.536,35.536,0,1,0,98.722,59.561,35.6,35.6,0,0,0,63.133,24.025Z" transform="translate(-5.128 -6.835)" fill="#fff"/>
        <path id="Path_97" data-name="Path 97" d="M53.887,62.263a11.889,11.889,0,1,1,11.89-11.889A11.9,11.9,0,0,1,53.887,62.263Zm0-20.807a8.918,8.918,0,1,0,8.918,8.918A8.929,8.929,0,0,0,53.887,41.456Z" transform="translate(4.118 2.405)" fill="#fff"/>
        <path id="Path_98" data-name="Path 98" d="M68.62,89.542H43.6a6.19,6.19,0,1,1,0-12.381H68.621a6.19,6.19,0,1,1,0,12.381ZM43.6,80.133a3.219,3.219,0,1,0,0,6.438H68.621a3.219,3.219,0,1,0,0-6.438H43.6Z" transform="translate(1.893 21.256)" fill="#fff"/>
        <path id="Path_99" data-name="Path 99" d="M17.016,86.645c2.868,0,2.873-4.457,0-4.457s-2.873,4.457,0,4.457Z" transform="translate(-9.119 23.697)" fill="#fff"/>
        <path id="Path_100" data-name="Path 100" d="M17.016,19.27c2.868,0,2.873-4.457,0-4.457s-2.873,4.457,0,4.457Z" transform="translate(-9.119 -9.145)" fill="#fff"/>
        <path id="Path_101" data-name="Path 101" d="M84.391,19.27c2.868,0,2.873-4.457,0-4.457s-2.873,4.457,0,4.457Z" transform="translate(23.722 -9.145)" fill="#fff"/>
        <path id="Path_102" data-name="Path 102" d="M84.391,86.645c2.868,0,2.873-4.457,0-4.457s-2.873,4.457,0,4.457Z" transform="translate(23.722 23.697)" fill="#fff"/>
      </g>
    </g>
    <g id="noun_Midi_Synthesizer_324651" data-name="noun_Midi Synthesizer_324651" transform="translate(1394 463)">
      <g id="Group_69" data-name="Group 69">
        <path id="Path_124" data-name="Path 124" d="M72.421,0H6.584A6.586,6.586,0,0,0,0,6.584V72.421A6.586,6.586,0,0,0,6.584,79H72.421A6.586,6.586,0,0,0,79,72.421V6.584A6.586,6.586,0,0,0,72.421,0Zm3.95,72.421a3.962,3.962,0,0,1-3.95,3.95H6.584a3.962,3.962,0,0,1-3.95-3.95V6.584a3.962,3.962,0,0,1,3.95-3.95H72.421a3.962,3.962,0,0,1,3.95,3.95Z" fill="#fff"/>
        <path id="Path_125" data-name="Path 125" d="M17.311,37.475H25.18a1.315,1.315,0,0,0,1.311-1.311V28.3a1.315,1.315,0,0,0-1.311-1.311H22.557V7.311a1.311,1.311,0,1,0-2.623,0V26.984H17.311A1.315,1.315,0,0,0,16,28.3v7.869A1.315,1.315,0,0,0,17.311,37.475Zm1.311-7.869h5.246v5.246H18.623Z" transform="translate(5.081 1.869)" fill="#fff"/>
        <path id="Path_126" data-name="Path 126" d="M27.311,28.3h2.623v7.869a1.311,1.311,0,1,0,2.623,0V28.3H35.18a1.315,1.315,0,0,0,1.311-1.311V19.115A1.315,1.315,0,0,0,35.18,17.8H32.557V7.311a1.311,1.311,0,1,0-2.623,0V17.8H27.311A1.315,1.315,0,0,0,26,19.115v7.869A1.315,1.315,0,0,0,27.311,28.3Zm1.311-7.869h5.246v5.246H28.623Z" transform="translate(8.256 1.869)" fill="#fff"/>
        <path id="Path_127" data-name="Path 127" d="M37.311,16.492h2.623V36.164a1.311,1.311,0,0,0,2.623,0V16.492H45.18a1.315,1.315,0,0,0,1.311-1.311V7.311A1.315,1.315,0,0,0,45.18,6H37.311A1.315,1.315,0,0,0,36,7.311V15.18A1.315,1.315,0,0,0,37.311,16.492Zm1.311-7.869h5.246v5.246H38.623Z" transform="translate(11.432 1.869)" fill="#fff"/>
        <path id="Path_128" data-name="Path 128" d="M51.59,24.18A4.59,4.59,0,1,0,47,19.59,4.6,4.6,0,0,0,51.59,24.18Zm0-6.557a1.967,1.967,0,1,1-1.967,1.967A1.965,1.965,0,0,1,51.59,17.623Z" transform="translate(14.955 4.762)" fill="#fff"/>
        <path id="Path_129" data-name="Path 129" d="M51.59,33.18A4.59,4.59,0,1,0,47,28.59,4.6,4.6,0,0,0,51.59,33.18Zm0-6.557a1.967,1.967,0,1,1-1.967,1.967A1.965,1.965,0,0,1,51.59,26.623Z" transform="translate(14.955 7.619)" fill="#fff"/>
        <path id="Path_130" data-name="Path 130" d="M51.59,15.18A4.59,4.59,0,1,0,47,10.59,4.6,4.6,0,0,0,51.59,15.18Zm0-6.557a1.967,1.967,0,1,1-1.967,1.967A1.965,1.965,0,0,1,51.59,8.623Z" transform="translate(14.955 1.869)" fill="#fff"/>
        <path id="Path_131" data-name="Path 131" d="M7.311,16.492H9.934V36.164a1.311,1.311,0,1,0,2.623,0V16.492H15.18a1.315,1.315,0,0,0,1.311-1.311V7.311A1.315,1.315,0,0,0,15.18,6H7.311A1.315,1.315,0,0,0,6,7.311V15.18A1.315,1.315,0,0,0,7.311,16.492ZM8.623,8.623h5.246v5.246H8.623Z" transform="translate(1.869 1.869)" fill="#fff"/>
        <path id="Path_132" data-name="Path 132" d="M69.572,35H6.318A1.319,1.319,0,0,0,5,36.311V59.918A1.319,1.319,0,0,0,6.318,61.23H69.572a1.319,1.319,0,0,0,1.318-1.311V36.311A1.319,1.319,0,0,0,69.572,35ZM7.636,45.492h5.271v5.246H7.636Zm7.907,0h5.271v5.246H15.542Zm7.907,0H28.72v5.246H23.449Zm7.907,0h5.271v5.246H31.356Zm7.907,0h5.271v5.246H39.263Zm7.907,0h5.271v5.246H47.17Zm7.907,0h5.271v5.246H55.076Zm7.907,0h5.271v5.246H62.983Zm5.271-2.623H62.983V37.623h5.271Zm-7.907,0H55.076V37.623h5.271Zm-7.907,0H47.17V37.623h5.271Zm-7.907,0H39.263V37.623h5.271Zm-7.907,0H31.356V37.623h5.271Zm-7.907,0H23.449V37.623H28.72Zm-7.907,0H15.542V37.623h5.271ZM7.636,37.623h5.271v5.246H7.636Zm0,15.738h5.271v5.246H7.636Zm7.907,0h5.271v5.246H15.542Zm7.907,0H28.72v5.246H23.449Zm7.907,0h5.271v5.246H31.356Zm7.907,0h5.271v5.246H39.263Zm7.907,0h5.271v5.246H47.17Zm7.907,0h5.271v5.246H55.076Zm13.178,5.246H62.983V53.361h5.271Z" transform="translate(1.557 11.218)" fill="#fff"/>
      </g>
    </g>
  </g>
</svg>
