<?xml version="1.0" encoding="utf-8"?>
<!-- Generator: Adobe Illustrator 24.2.1, SVG Export Plug-In . SVG Version: 6.00 Build 0)  -->
<svg version="1.1" id="Layer_1" xmlns="http://www.w3.org/2000/svg" xmlns:xlink="http://www.w3.org/1999/xlink"
	 width="100%" height="100%" viewBox="0 0 767 93" preserveAspectRatio="xMidYMid meet">
<style type="text/css">
	.st0{enable-background:new    ;}
	.st1{fill:#FFFFFF;}
</style>
<g class="st0">
	<path class="st1" d="M49.6,22.4c-5.2-7-11.4-7.6-14.6-7.6c-9.4,0-12.3,5.9-12.3,10.5c0,2.1,0.7,4.2,2.8,6c2.1,2,5.1,3.1,10.7,5.1
		c7,2.4,13.5,4.8,18.1,9c4,3.6,7.6,9.6,7.6,18.8c0,17.4-12.6,29.3-31.1,29.3c-16.5,0-26.1-10-30.8-16.9l11.4-10.9
		c4.3,8.7,12.5,11.9,18.8,11.9c7.9,0,13.8-4.8,13.8-12.3c0-3.2-1.1-5.8-3.5-8c-3.3-3.1-8.7-4.8-13.8-6.6C22,49,16.3,46.9,11.8,42.9
		c-2.9-2.5-7.1-7.5-7.1-16.6C4.7,13.1,13.5,0,33.4,0C39,0,49.6,1.1,58.7,10.5L49.6,22.4z"/>
	<path class="st1" d="M168.3,46.8c0,27.2-19.6,46.6-47.7,46.6S72.9,74,72.9,46.8C72.9,19.6,92.5,0,120.6,0S168.3,19.6,168.3,46.8z
		 M150.3,46.8c0-18.1-12.3-31-29.7-31c-17.4,0-29.7,12.9-29.7,31c0,18.1,12.3,30.8,29.7,30.8C138,77.6,150.3,64.9,150.3,46.8z"/>
	<path class="st1" d="M201.8,2v56.1c0,6.8,2.3,11,4.3,13.3c2.5,3.1,7.2,6.2,14.2,6.2s11.7-3.1,14.2-6.2c2-2.3,4.3-6.4,4.3-13.3V2
		h17.4v54.7c0,8.4-1.3,17-6.7,23.9c-6.4,8.4-17.7,12.9-29.2,12.9s-22.8-4.4-29.2-12.9c-5.4-6.8-6.7-15.4-6.7-23.9V2H201.8z"/>
	<path class="st1" d="M276.6,91.4V2h12.1L343,61.6V2h17.4v89.4h-12.1L294,31.6v59.8H276.6z"/>
	<path class="st1" d="M404.1,2c12.5,0,23.3,1.3,33.2,8.7c10.9,8.2,17.2,21.2,17.2,36c0,14.9-6.2,27.7-18,36
		c-10.5,7.4-20.2,8.6-32.7,8.6h-23V2H404.1z M398.2,76.4h5.4c4.4,0,14.1-0.3,21.8-5.9c7.1-5.1,11.1-14.2,11.1-23.7
		c0-9.4-3.9-18.5-11-23.9c-7.2-5.4-16.1-5.9-22-5.9h-5.4V76.4z"/>
	<path class="st1" d="M492.7,2c5,0,14.6,0,21.8,5.6c5.2,4,8.3,11,8.3,18.5c0,11.5-7.6,16.2-10,17.6c5.9,0.9,9.4,3.5,11.7,5.6
		c5.4,5.1,6.4,12.1,6.4,16.8c0,5.2-1.5,12.6-7.6,18.1c-6.7,5.9-14.9,7.2-22.6,7.2h-30V2H492.7z M488,39.1h5
		c2.7,0,13.5-0.3,13.5-11.7c0-8.2-6.3-11.3-13.4-11.3H488V39.1z M488,77.2h7.5c3.2,0,8-0.1,11.9-2.4c4.3-2.5,5.5-6.8,5.5-10.3
		c0-2.8-0.9-7.6-6.6-10.2c-3.8-1.7-8.2-1.7-11.9-1.7H488V77.2z"/>
	<path class="st1" d="M564.4,2v89.4H547V2H564.4z"/>
	<path class="st1" d="M612.9,17v74.4h-17.4V17h-20.1V2H633v15H612.9z"/>
	<path class="st1" d="M693.6,17h-32.2v20h30.8v15h-30.8v24.4h32.2v15H644V2h49.6V17z"/>
	<path class="st1" d="M754.4,22.4c-5.2-7-11.4-7.6-14.6-7.6c-9.4,0-12.3,5.9-12.3,10.5c0,2.1,0.7,4.2,2.8,6c2.1,2,5.1,3.1,10.7,5.1
		c7,2.4,13.5,4.8,18.1,9c4,3.6,7.6,9.6,7.6,18.8c0,17.4-12.6,29.3-31.1,29.3c-16.5,0-26.1-10-30.8-16.9l11.4-10.9
		c4.3,8.7,12.5,11.9,18.8,11.9c7.9,0,13.8-4.8,13.8-12.3c0-3.2-1.1-5.8-3.5-8c-3.3-3.1-8.7-4.8-13.8-6.6c-4.7-1.6-10.3-3.8-14.9-7.8
		c-2.9-2.5-7.1-7.5-7.1-16.6c0-13.1,8.8-26.3,28.7-26.3c5.6,0,16.2,1.1,25.3,10.5L754.4,22.4z"/>
</g>
</svg>
