<svg xmlns="http://www.w3.org/2000/svg" width="32" height="32" viewBox="0 0 32 32">
  <g id="noun_Sawtooth_Wave_1996693" data-name="noun_Sawtooth Wave_1996693" transform="translate(-4.402 -30.402)">
    <path id="Path_106" data-name="Path 106" d="M29.06,29.859a1.1,1.1,0,0,1-.609-.985V20.463L16.1,29.754a1.1,1.1,0,0,1-1.763-.88V20.45L6.4,26.357v8.375a3.67,3.67,0,0,0,3.67,3.67h24.66a3.67,3.67,0,0,0,3.67-3.67V23.595l-8.189,6.159A1.1,1.1,0,0,1,29.06,29.859ZM34.732,6.4H10.072a3.67,3.67,0,0,0-3.67,3.67v13.54l8.375-6.238a1.1,1.1,0,0,1,1.759.883v8.411l12.353-9.291a1.1,1.1,0,0,1,1.763.88v8.411L38.4,20.84V10.072A3.67,3.67,0,0,0,34.732,6.4Z" transform="translate(-2 24)" fill="#240046"/>
  </g>
</svg>
