<svg xmlns="http://www.w3.org/2000/svg" width="32" height="32" viewBox="0 0 32 32">
  <g id="noun_square_wave_1996692" data-name="noun_square wave_1996692" transform="translate(-6.402 -6.402)">
    <path id="Path_118" data-name="Path 118" d="M34.732,6.4H10.072a3.67,3.67,0,0,0-3.67,3.67v8.722H9.89v7.584h3.442V18.793H18.8v7.584h3.441V18.793h5.471v7.584h3.442V18.793h5.471v7.584H38.4V10.072A3.67,3.67,0,0,0,34.732,6.4Zm.061,14.226h-1.8v7.584H25.881V20.628h-1.8v7.584H16.968V20.628h-1.8v7.584H8.055V20.628H6.4v14.1a3.67,3.67,0,0,0,3.67,3.67h24.66a3.67,3.67,0,0,0,3.67-3.67v-6.52H34.793V20.628Z" transform="translate(0 0)" fill="#240046"/>
  </g>
</svg>
